<?xml version="1.0" standalone="no"?>
<!DOCTYPE svg PUBLIC "-//W3C//DTD SVG 20010904//EN"
 "http://www.w3.org/TR/2001/REC-SVG-20010904/DTD/svg10.dtd">
<svg version="1.0" xmlns="http://www.w3.org/2000/svg"
 width="64.000000pt" height="64.000000pt" viewBox="0 0 64.000000 64.000000"
 preserveAspectRatio="xMidYMid meet">

<g transform="translate(0.000000,64.000000) scale(0.100000,-0.100000)"
fill="#000000" stroke="none">
<path d="M0 335 c0 -40 2 -45 23 -45 13 0 29 6 36 13 11 10 14 10 18 0 3 -7
17 -13 31 -12 l27 1 -25 8 c-17 5 -3 8 45 7 39 0 78 -5 87 -11 13 -8 23 -7 38
2 24 14 72 16 86 2 6 -6 10 -1 12 15 1 17 -3 25 -14 25 -14 0 -15 2 -3 18 13
16 13 16 -7 0 -23 -20 -124 -26 -124 -8 0 18 32 24 54 10 19 -12 20 -12 7 3
-18 23 -48 21 -63 -3 -17 -26 -33 -25 -45 3 l-10 22 -7 -22 c-9 -29 -72 -33
-79 -5 -4 16 -5 16 -6 0 -1 -24 -17 -23 -24 2 -3 14 -14 20 -31 20 -24 0 -26
-3 -26 -45z m48 18 c2 -8 -5 -13 -17 -13 -12 0 -21 6 -21 16 0 18 31 15 38 -3z
m-5 -50 c-7 -2 -19 -2 -25 0 -7 3 -2 5 12 5 14 0 19 -2 13 -5z m230 0 c-7 -2
-19 -2 -25 0 -7 3 -2 5 12 5 14 0 19 -2 13 -5z"/>
<path d="M491 340 c1 -38 2 -41 8 -15 l6 29 27 -34 28 -35 -2 45 c-1 34 -2 37
-5 15 l-5 -30 -29 35 -28 35 0 -45z"/>
<path d="M590 371 c0 -4 11 -6 25 -3 14 2 25 6 25 8 0 2 -11 4 -25 4 -14 0
-25 -4 -25 -9z"/>
<path d="M394 330 c1 -29 5 -35 24 -36 17 -1 18 -1 3 3 -14 3 -21 15 -24 36
-4 31 -4 31 -3 -3z"/>
<path d="M463 335 c0 -22 2 -30 4 -17 2 12 2 30 0 40 -3 9 -5 -1 -4 -23z"/>
<path d="M598 333 c6 -2 18 -2 25 0 6 3 1 5 -13 5 -14 0 -19 -2 -12 -5z"/>
<path d="M603 293 c9 -2 23 -2 30 0 6 3 -1 5 -18 5 -16 0 -22 -2 -12 -5z"/>
</g>
</svg>
